<svg id="Capa_1" enable-background="new 0 0 512.002 512.002" height="512" viewBox="0 0 512.002 512.002" width="512" xmlns="http://www.w3.org/2000/svg"><g><g><g fill="#695d69"><circle cx="37.102" cy="37.103" r="29.602"/><circle cx="474.898" cy="82.103" r="29.602"/><circle cx="156" cy="474.899" r="29.602"/></g><g><path d="m504.394 263.697c-1.699-28.17-24.393-50.994-52.399-52.703-5.258-.321-10.372.089-15.25 1.138-3.37.725-6.454-1.997-6.184-5.453.307-3.919.399-7.899.265-11.927-1.498-45.227-30.835-82.907-71.573-96.304-1.365-.449-2.418-1.564-2.7-2.973-6.653-33.29-36.042-58.373-71.289-58.373-29.008 0-54.047 16.989-65.712 41.561-1.089 2.295-4.028 3.01-6.03 1.447-13.426-10.48-30.453-16.516-48.897-15.913-39.401 1.289-70.885 32.191-73.059 71.783-.556 10.129.857 19.858 3.89 28.834 1.189 3.518-1.578 7.086-5.257 6.747-3.577-.33-7.227-.409-10.93-.22-38.979 1.989-70.375 34.113-71.722 73.347-1.168 34 19.834 63.233 49.593 74.21 1.117.412 1.759 1.567 1.597 2.746-.625 4.542-.843 9.214-.616 13.978 1.807 37.892 32.191 68.659 69.85 70.711 17.296.942 33.387-4.088 46.421-13.226 2.144-1.503 5.139-.893 6.486 1.352 14.141 23.567 39.844 39.326 69.206 39.326 30.217 0 56.559-16.689 70.411-41.404 1.354-2.416 4.531-3.052 6.722-1.358 12.252 9.472 27.489 15.191 43.943 15.415 43.44.592 78.167-36.746 74.87-80.227-.11-1.448 1.048-2.68 2.5-2.68 32.069-.012 57.836-27.144 55.864-59.834z" fill="#695d69"/><path d="m504.394 263.697c-1.699-28.17-24.393-50.994-52.398-52.703-5.258-.321-10.372.089-15.25 1.138-3.37.725-6.454-1.997-6.184-5.453.307-3.919.399-7.899.266-11.927-1.498-45.227-30.835-82.907-71.572-96.304-1.365-.449-2.419-1.564-2.7-2.973-6.653-33.29-36.042-58.373-71.289-58.373-17.698 0-33.912 6.332-46.519 16.844 76.19 25.592 131.079 97.58 131.079 182.393 0 93.754-67.075 171.829-155.852 188.89 10.867 5.472 23.129 8.556 36.109 8.556 30.217 0 56.559-16.689 70.411-41.404 1.354-2.416 4.531-3.052 6.722-1.358 12.252 9.472 27.489 15.191 43.943 15.415 43.44.592 78.167-36.746 74.87-80.227-.109-1.448 1.048-2.68 2.5-2.68 32.069-.012 57.836-27.144 55.864-59.834z" fill="#564e57"/></g></g><path d="m37.103 74.205c20.458 0 37.102-16.644 37.102-37.102s-16.644-37.102-37.102-37.102-37.103 16.644-37.103 37.102 16.645 37.102 37.103 37.102zm0-59.204c12.187 0 22.102 9.915 22.102 22.102s-9.915 22.102-22.102 22.102c-12.188 0-22.103-9.915-22.103-22.102s9.915-22.102 22.103-22.102zm437.794 104.204c20.458 0 37.103-16.644 37.103-37.102s-16.645-37.102-37.103-37.102-37.102 16.644-37.102 37.102 16.644 37.102 37.102 37.102zm0-59.204c12.188 0 22.103 9.915 22.103 22.102s-9.915 22.102-22.103 22.102c-12.187 0-22.102-9.915-22.102-22.102s9.916-22.102 22.102-22.102zm-374.381 114.312c2.66-3.368 3.425-7.816 2.046-11.899-2.817-8.339-3.997-17.094-3.507-26.022 1.962-35.721 30.257-63.535 65.816-64.699 15.905-.52 31.535 4.569 44.037 14.329 2.752 2.149 6.283 2.919 9.685 2.114 3.414-.808 6.233-3.089 7.736-6.256 10.75-22.645 33.885-37.277 58.937-37.277 30.984 0 57.873 22.014 63.935 52.342.803 4.022 3.759 7.329 7.712 8.628 16.084 5.29 30.555 14.797 41.849 27.494 2.752 3.095 7.493 3.373 10.588.62s3.372-7.494.619-10.588c-12.608-14.176-28.651-24.913-46.496-31.139-8.238-36.258-40.795-62.356-78.206-62.356-29.392 0-56.636 16.374-70.562 42.055-14.646-10.255-32.352-15.539-50.322-14.957-43.39 1.42-77.912 35.326-80.303 78.868-.53 9.648.549 19.141 3.211 28.271-2.791-.136-5.605-.132-8.402.01-42.729 2.18-77.358 37.575-78.835 80.58-1.2 34.938 19.076 66.614 50.815 80.049-.342 3.806-.422 7.659-.239 11.5.647 13.583 4.731 26.917 11.812 38.561 1.411 2.322 3.883 3.605 6.415 3.605 1.328 0 2.672-.353 3.89-1.092 3.539-2.152 4.664-6.766 2.512-10.305-5.781-9.51-9.116-20.397-9.646-31.483-.2-4.226-.014-8.465.555-12.595.643-4.652-2.062-9.198-6.431-10.81-27.755-10.238-45.715-37.129-44.692-66.916 1.213-35.287 29.592-64.328 64.608-66.114 3.29-.168 6.608-.101 9.86.198 4.233.393 8.36-1.37 11.003-4.716zm55.484 263.484c-20.458 0-37.103 16.644-37.103 37.102s16.645 37.102 37.103 37.102 37.103-16.644 37.103-37.102-16.645-37.102-37.103-37.102zm0 59.204c-12.188 0-22.103-9.915-22.103-22.102s9.915-22.102 22.103-22.102 22.103 9.915 22.103 22.102-9.915 22.102-22.103 22.102zm21.941-308.61c9.608 0 18.877 2.83 26.803 8.185 3.433 2.319 8.094 1.416 10.413-2.017 2.318-3.432 1.416-8.094-2.017-10.413-10.415-7.036-22.587-10.755-35.199-10.755-34.709 0-62.947 28.238-62.947 62.947s28.238 62.948 62.947 62.948c13.689 0 25.938-4.464 35.419-12.909 1.859-1.657 3.629-3.481 5.259-5.424 2.662-3.173 2.247-7.904-.926-10.566-3.174-2.662-7.904-2.248-10.566.926-1.164 1.388-2.424 2.688-3.743 3.863-6.787 6.045-15.347 9.11-25.442 9.11-26.438 0-47.947-21.509-47.947-47.948-.001-26.437 21.508-47.947 47.946-47.947zm274.511 15.117c-4.774-.291-9.545-.051-14.217.712.165-3.228.195-6.484.088-9.715-.457-13.79-3.328-27.165-8.533-39.753-1.583-3.828-5.969-5.647-9.797-4.065-3.827 1.583-5.647 5.969-4.064 9.797 4.515 10.919 7.006 22.532 7.402 34.518.123 3.697.04 7.429-.247 11.092-.316 4.042 1.245 7.884 4.284 10.541 3.025 2.646 7.021 3.676 10.953 2.83 4.306-.926 8.754-1.258 13.217-.985 24.384 1.489 43.889 21.122 45.369 45.669.827 13.705-3.858 26.714-13.191 36.633-9.251 9.829-21.748 15.245-35.19 15.25-2.776.001-5.452 1.169-7.34 3.207-1.884 2.032-2.845 4.779-2.636 7.541 1.423 18.757-5.176 37.404-18.103 51.159-12.967 13.798-30.472 21.251-49.187 21.001-14.346-.196-27.99-4.985-39.458-13.85-2.775-2.145-6.338-2.974-9.769-2.275-3.427.698-6.373 2.849-8.082 5.9-12.99 23.174-37.463 37.571-63.869 37.571-25.9 0-49.368-13.34-62.775-35.685-1.704-2.839-4.544-4.863-7.792-5.554-3.261-.692-6.7.006-9.431 1.92-12.252 8.591-26.675 12.7-41.707 11.878-10.978-.598-21.741-4.004-31.129-9.851-3.516-2.188-8.141-1.115-10.331 2.402-2.189 3.516-1.114 8.141 2.401 10.331 11.526 7.177 24.75 11.36 38.242 12.095 17.365.951 34.094-3.483 48.55-12.833 16.378 25.292 43.801 40.295 73.972 40.295 30.704 0 59.23-16.132 75.248-42.324 13.481 9.585 29.219 14.752 45.725 14.978.364.005.725.007 1.088.007 22.292-.001 43.829-9.343 59.234-25.735 14.614-15.551 22.611-36.223 22.356-57.389 15.623-1.261 29.993-8.166 40.904-19.76 12.197-12.96 18.32-29.941 17.241-47.816-1.935-32.106-27.483-57.787-59.426-59.737zm-78.463 98.365c-9.655 13.795-15.417 21.338-18.512 25.391-3.827 5.011-5.749 7.527-4.481 11.648.749 2.435 2.591 4.302 5.053 5.123 1.004.334 24.816.59 33.552.48 4.142-.052 7.457-3.452 7.404-7.594-.051-4.142-3.414-7.45-7.594-7.405-5.719.072-11.77.121-16.938.136 3.332-4.473 7.843-10.66 13.805-19.178 7.762-11.09 8.143-19.554 8.143-19.903 0-12.742-10.367-23.109-23.109-23.109-11.018 0-20.554 7.838-22.676 18.638-.799 4.064 1.849 8.006 5.913 8.805 4.064.797 8.007-1.849 8.806-5.914.743-3.783 4.09-6.529 7.957-6.529 4.337 0 7.89 3.422 8.1 7.708-.001 0-1.968 6.767-5.423 11.703zm-84.046-128.482c-34.709 0-62.947 28.238-62.947 62.947s28.238 62.948 62.947 62.948 62.947-28.238 62.947-62.948-28.238-62.947-62.947-62.947zm0 110.895c-26.438 0-47.947-21.509-47.947-47.948 0-26.438 21.509-47.947 47.947-47.947s47.947 21.509 47.947 47.947c.001 26.439-21.508 47.948-47.947 47.948z"/></g></svg>