<svg id="&#x428;&#x430;&#x440;_1" enable-background="new 0 0 300 300" viewBox="0 0 300 300" xmlns="http://www.w3.org/2000/svg"><g><path d="m282.424 246.706c-1.579-9.923-2.898-20.074-3.938-30.312-.46-4.518-.858-9.014-1.203-13.477-.17-2.232-.33-4.452-.475-6.666 0-.004 0-.004 0-.007-.069-1.109-.138-2.214-.203-3.318-.13-2.203-.243-4.398-.344-6.579v-.011c-.098-2.185-.185-4.358-.257-6.521v-.014c-.036-1.083-.069-2.163-.098-3.239-.025-1.08-.051-2.152-.073-3.224s-.04-2.141-.054-3.206c-.011-.793-.018-1.583-.025-2.373v-.279c-.007-.29-.007-.576-.007-.866-.007-.942-.011-1.88-.011-2.815 0-.583 0-1.166.004-1.746 0-.254 0-.504.004-.75 0-.196 0-.391.004-.583 0-.297.004-.598.007-.895 0-.286.004-.569.007-.851 0-.185.004-.366.007-.551.004-.246.004-.493.007-.739.004-.319.011-.641.015-.96.007-.409.011-.815.022-1.221.014-.913.036-1.822.058-2.728.011-.518.025-1.036.04-1.554.007-.214.011-.428.018-.638.007-.243.015-.489.022-.732 0-.04.004-.076.004-.116.011-.257.018-.511.025-.764.014-.402.029-.801.044-1.199.007-.185.011-.366.018-.547 0-.011 0-.022.004-.029.004-.116.007-.235.011-.351.004-.076.007-.149.011-.221.004-.112.007-.228.011-.341.004-.087.007-.174.011-.261 0-.033.004-.062.004-.094.004-.062.007-.119.007-.177.007-.174.015-.344.022-.518.004-.08.007-.159.011-.239 0-.018 0-.033.004-.051.011-.254.022-.507.033-.757.022-.457.044-.909.065-1.362.022-.489.047-.975.072-1.456.007-.159.018-.319.025-.475.043-.808.087-1.616.138-2.416.025-.482.054-.96.087-1.438.029-.478.062-.956.094-1.431.025-.417.054-.833.087-1.25.004-.058.007-.116.011-.177.033-.482.069-.96.105-1.438.011-.159.022-.322.036-.482.018-.265.04-.529.062-.794.011-.17.025-.341.04-.511.007-.112.018-.221.025-.33.004-.054.007-.109.015-.163.014-.174.029-.344.044-.518.047-.583.098-1.167.149-1.746.029-.351.062-.699.094-1.047.025-.308.054-.619.083-.927.014-.138.029-.275.04-.413.022-.221.044-.446.065-.667.065-.663.13-1.326.199-1.985.007-.051.011-.098.014-.145.007-.054.011-.109.018-.159.004-.047.007-.094.015-.141-.004-.007 0-.015 0-.022.007-.062.011-.123.022-.181.004-.025.004-.051.007-.076v-.007c.004-.051.011-.098.015-.149.004-.047.007-.091.014-.138.007-.051.011-.098.014-.145.004-.018.004-.036.007-.054 0-.004 0-.007 0-.007.018-.156.033-.312.051-.464.011-.116.022-.228.036-.344.025-.228.051-.453.076-.681.018-.159.036-.322.054-.489.011-.116.025-.235.04-.359 0-.022.004-.044.007-.065.004-.04.011-.083.014-.127.007-.058.015-.119.022-.181.007-.054.011-.112.022-.174 0-.007 0-.014.004-.025v-.029c.004-.007.004-.015.004-.018 0-.011 0-.018.004-.025v-.018c0-.007.004-.011.004-.018.004-.044.007-.087.014-.131.004-.022.004-.043.007-.065 0-.004 0-.004.004-.007v-.025c0-.018.004-.036.007-.054 0-.011.004-.022.004-.033 0-.004 0-.007 0-.007.004-.007.004-.018.004-.025 0-.004 0-.011.004-.015 0 0 0 0 0-.004v-.015c.004-.004.004-.004.004-.007 0-.011 0-.025.004-.036.004-.054.011-.109.018-.167.029-.239.058-.482.087-.732h-96.27c.438 4.898.754 9.963 1.007 15.1h77.004c3.358 0 3.355 5.213 0 5.213h-76.75c.79 21.614-.025 45.032-2.438 68.838-1.387 13.655-3.253 27.059-5.561 39.964-.185 1.04-.373 2.08-.565 3.112-.004.025-.011.051-.014.072-.159.862-.319 1.717-.486 2.572-.014.08-.029.163-.047.243-.123.663-.25 1.322-.384 1.982-.109.576-.221 1.148-.337 1.721-.029.152-.062.308-.091.46-.073.362-.145.721-.221 1.083-.029.156-.062.308-.094.464-.062.301-.123.601-.185.902-.402 1.953-.812 3.891-1.235 5.815-.054.246-.109.493-.163.736-.033.152-.069.308-.101.46-.025.112-.051.221-.076.333-.054.261-.116.518-.174.779-.04.181-.08.362-.123.543-.268 1.196-.543 2.384-.822 3.569-.123.522-.246 1.043-.373 1.565-.054.236-.112.471-.17.707-.04.178-.083.351-.127.529-.018.087-.04.17-.062.257-.207.844-.413 1.685-.623 2.518-.083.348-.17.696-.261 1.04-.123.503-.25 1.003-.38 1.5-.018.073-.036.145-.054.214-.073.286-.145.569-.221.855-.036.141-.072.286-.112.427-.072.279-.145.558-.217.833 0 .004 0 .004-.004.007-.029.12-.058.235-.091.351-.022.087-.044.17-.065.254-.04.145-.076.293-.12.438-.051.196-.101.388-.156.583-.043.167-.087.33-.134.496-.101.395-.21.79-.319 1.181-.072.264-.145.525-.217.79-.018.073-.036.141-.058.21 0 .004 0 .007-.004.011-.065.246-.134.493-.203.739-.051.178-.098.359-.152.536-.011.051-.025.098-.04.145-.007.033-.014.062-.025.094-.018.073-.04.149-.062.221-.007.025-.011.047-.022.073-.098.355-.196.707-.297 1.058-.062.217-.123.431-.185.645-.044.156-.091.312-.134.467-.044.149-.083.293-.127.439-.054.188-.109.377-.163.561-.188.652-.38 1.301-.572 1.946v.004c-.007.025-.015.051-.022.076-.091.308-.185.612-.275.917-.141.475-.286.946-.427 1.413h129.126c-4.173-15.153-7.691-31.709-10.43-48.951zm-79.21-15.991 21.179-44.431c.598-1.253 1.953-1.898 3.304-1.58 1.348.319 2.264 1.507 2.239 2.891l-.431 26.787 16.173-3.916c1.08-.264 2.243.127 2.945.996.706.869.848 2.083.366 3.094l-15.325 32.149-5.826 12.22c-.5 1.04-1.514 1.659-2.616 1.659-.235 0-.475-.025-.71-.087-1.355-.333-2.264-1.536-2.217-2.931l.38-10.861.558-15.948-16.705 4.043c-1.098.264-2.246-.127-2.953-.996-.702-.868-.843-2.082-.361-3.089z" fill="#e1f0e9"/><path d="m163.021 295.517.431.134h-151.779v-19.897l128.365-1.811c3.351 0 2.514-2.764-.844-2.764l-127.521-.634v-19.448h162.239c-3 15.796-6.659 30.769-10.891 44.42z" fill="#e1f0e9"/><path d="m175.314 246.706c-.38 2.13-.772 4.25-1.177 6.351-.105.543-.21 1.087-.319 1.63-.109.576-.221 1.148-.337 1.721-.192.975-.391 1.945-.591 2.909-.214 1.036-.427 2.069-.648 3.097-.656 3.083-1.341 6.13-2.047 9.137-.123.522-.246 1.043-.373 1.565-.054.236-.112.471-.17.707-.04.178-.083.355-.127.529-.004.018-.007.036-.015.054-.058.246-.116.493-.178.736-.123.507-.25 1.011-.373 1.518-.04.156-.08.312-.12.467-.051.214-.105.431-.159.645-.033.13-.065.264-.101.395-.123.503-.25 1.003-.38 1.5-.091.359-.181.714-.275 1.069-.036.141-.072.286-.112.427-.072.279-.145.558-.217.833-.058.217-.116.435-.174.652-.123.471-.25.946-.377 1.417-.004.022-.011.04-.018.062-.105.395-.21.79-.319 1.181-.058.214-.116.424-.177.638-.083.308-.167.612-.25.92-.018.062-.036.127-.054.192-.395 1.424-.797 2.837-1.206 4.239-.188.652-.38 1.301-.572 1.946v.004c-.007.025-.015.051-.022.076-.091.308-.185.612-.275.917-.141.475-.286.946-.427 1.413h-4.978l-.431-.134c4.232-13.651 7.891-28.624 10.89-44.42h-162.242v19.448h138.02c3.358 0 3.351 5.21 0 5.21h-138.02v19.897h-1.315v-48.945h169.666z" fill="#e1f0e9"/><path d="m233.664 246.706-5.826 12.22c-.5 1.04-1.514 1.659-2.616 1.659-.235 0-.475-.025-.71-.087-1.355-.333-2.264-1.536-2.217-2.931l.38-10.861z" fill="#e1f0e9"/><path d="m225.337 219.588c-.709-.568-1.108-1.415-1.092-2.322l.31-19.211-14.563 30.549 14.96-3.622c.222-.056.451-.081.68-.081.656 0 1.313.224 1.837.648.706.572 1.109 1.455 1.079 2.363l-.658 18.795 14.318-30.036-14.364 3.476c-.88.211-1.8.009-2.507-.559z" fill="#ffbb2d"/><path d="m189.012 112.382h-6.181c-1.127 0-2.206.569-2.964 1.565-.757.993-1.134 2.333-1.029 3.673 2.032 26.628 1.706 57.267-.946 88.597-1.148 13.564-2.703 26.863-4.612 39.67h-10.539l.92-23.94 4.786-124.464.275-7.177h19.578z" fill="#4997b3"/><path d="m162.743 72.432h33.305v12.662h-33.305z" fill="#4997b3"/><path d="m187.266 67.219h-17.64l.83-21.969v-.014l8.589.036 7.373.032h.152z" fill="#4997b3"/><path d="m187.19 21.072c-5.066 1.441-7.795 3.609-8.551 9.22-.442 3.279 4.578 4.698 5.025 1.385.846-6.28 4.613-4.744 8.786-6.178 4.414-1.517 7.427-5.473 7.723-10.118.448-7.032-5.136-11.655-11.741-12.178-11.311-.895-23.097 0-34.441 0-3.353 0-3.359 5.211 0 5.211h26.66c2.231 0 4.648-.247 6.86 0 3.883.434 12.658 3.39 5.699 10.703-1.315 1.383-4.268 1.457-6.02 1.955z" fill="#002144"/><path d="m228.49 50.13h-1.545c-7.157 0-12.978 5.822-12.978 12.978 0 6.651 5.03 12.143 11.485 12.887.201.047.415.077.649.077.137 0 .289-.004.432-.006.138.004.273.021.412.021v-.026c5.202-.103 13.633-.894 13.9 6.084.128 3.343 5.34 3.359 5.211 0-.422-10.978-10.898-11.275-19.252-11.283-4.217-.077-7.627-3.52-7.627-7.755 0-4.283 3.484-7.767 7.767-7.767h1.545c4.297 0 7.793-3.496 7.793-7.913 0-4.297-3.496-7.793-7.793-7.793h-21.592c-.42 0-.84 0-1.26 0-3.353 0-3.359 5.211 0 5.211h7.446.002 15.404c1.423 0 2.582 1.159 2.582 2.702.001 1.424-1.157 2.583-2.581 2.583z" fill="#002144"/><path d="m267.338 89.524h15.494c.217 0 .419-.024.608-.064 7.349-.541 13.176-7.014 13.176-14.912 0-8.252-6.354-14.966-14.166-14.966v2.606l-.002-2.606-23.009.007c-1.788 0-3.242-1.635-3.242-3.647 0-2.01 1.454-3.645 3.242-3.645h1.411c7.811 0 14.167-6.714 14.167-14.966 0-8.251-6.356-14.965-14.167-14.965h-15.602c-.001 0-.003 0-.004 0-7.757 0-15.514 0-23.272 0-3.353 0-3.359 5.211 0 5.211h10.688 28.191c4.938 0 8.956 4.375 8.956 9.754s-4.019 9.755-8.956 9.755h-1.411c-4.661 0-8.453 3.973-8.453 8.856s3.791 8.858 8.453 8.858h14.997l8.013-.007c4.938 0 8.955 4.376 8.955 9.755s-4.017 9.754-8.955 9.754v.01c-7.553-.004-15.116-.117-22.668.001-7.759.122-11.867 5.989-9.436 13.616 1.015 3.183 6.047 1.823 5.025-1.385-2.903-9.106 6.102-7.02 11.967-7.02z" fill="#002144"/><path d="m166.957 36.919c1.234.339 2.99-.421 3.205-1.82.374-2.431.215-5.014-1.013-7.145-.042-.074-.079-.153-.123-.226-.049-.079-.104-.155-.156-.232-1.697-2.606-4.57-3.951-6.385-4.353l-27.02-.061c-4.283 0-7.767-3.123-7.767-6.96 0-2.778 1.839-5.163 4.472-6.278.73-.264 1.485-.456 2.254-.587.344-.042.684-.094 1.041-.094v-.05c1.68-.175 3.397-.116 5.035.049 3.334.335 3.31-4.878 0-5.211-2.249-.226-4.709-.247-7.038.161-6.206.908-10.975 5.94-10.975 12.011 0 6.711 5.822 12.171 12.978 12.171h26.126c.823.241 3.494 1.242 3.452 4.047l.111.002c.043.451.051.931-.017 1.371-.213 1.389.353 2.802 1.82 3.205z" fill="#002144"/><path d="m248.622 211.463c-.703-.87-1.866-1.261-2.945-.996l-16.173 3.916.431-26.787c.025-1.384-.891-2.572-2.239-2.891-1.351-.319-2.706.326-3.304 1.58l-21.179 44.431c-.482 1.007-.341 2.221.362 3.09.707.869 1.855 1.261 2.953.996l16.705-4.043-.558 15.948-.38 10.861c-.047 1.395.862 2.598 2.217 2.931.236.062.475.087.71.087 1.101 0 2.116-.62 2.616-1.659l5.826-12.22 15.325-32.149c.481-1.012.34-2.225-.367-3.095zm-20.733 35.243.659-18.795c.029-.906-.373-1.79-1.08-2.362-.525-.424-1.181-.648-1.837-.648-.228 0-.456.025-.681.08l-14.959 3.623 14.564-30.548-.312 19.212c-.014.906.384 1.753 1.094 2.322.706.565 1.627.768 2.507.558l14.365-3.478z" fill="#002144"/><path d="m136.361 227.936h-65.994c2.221-15.448 15.028-27.523 30.823-28.545h.011.007c.714-.047 1.431-.069 2.156-.069 16.785.001 30.675 12.464 32.997 28.614z" fill="#ffbb2d"/><path d="m69.986 233.15h66.755v12.738h-66.755z" fill="#ffbb2d"/><path d="m292.847 295.651h-129.126c.141-.467.286-.938.427-1.413.091-.304.185-.609.275-.917.007-.025.014-.051.022-.076v-.004c.192-.645.384-1.293.572-1.946.054-.185.109-.373.163-.561.044-.145.083-.29.127-.439.044-.156.091-.312.134-.467.062-.214.123-.428.185-.645.101-.351.199-.703.297-1.058.011-.025.015-.047.022-.073.022-.072.043-.148.062-.221.011-.033.018-.062.025-.094.015-.047.029-.094.04-.145.054-.177.102-.359.152-.536.018-.065.036-.13.054-.192.051-.185.101-.373.152-.558.022-.069.04-.138.058-.21.072-.261.145-.525.217-.79.109-.391.217-.786.319-1.181.047-.167.091-.33.134-.496.054-.196.105-.388.156-.583.036-.134.072-.264.105-.399.007-.014.011-.025.015-.04.022-.083.043-.167.065-.254.033-.116.062-.232.091-.351.004-.004.004-.004.004-.007.072-.275.145-.554.217-.833.04-.141.076-.286.112-.427.076-.286.149-.569.221-.855.018-.069.036-.141.054-.214.13-.496.257-.996.38-1.5.036-.131.069-.265.101-.395.094-.37.185-.739.279-1.112.127-.504.25-1.011.373-1.518.044-.178.087-.355.13-.533.022-.087.044-.17.062-.257.043-.178.087-.351.127-.529.058-.235.116-.471.17-.707.127-.522.25-1.043.373-1.565l2.906.058 47.778.946c19.839.395 35.772-16.332 34.327-36.124-2.34-32.012-.431-73.501 1.185-98.527.116-1.83.232-3.572.348-5.213.196-2.833.38-5.376.547-7.572.257-3.387.467-5.96.598-7.528h20.44c-.029.25-.058.493-.087.732-.007.058-.014.112-.018.167-.004.014-.004.029-.007.043v.015.004l-.004.004v.011c0 .007-.004.018-.004.025v.007c0 .011-.004.022-.004.033-.004.018-.007.036-.007.054v.015c-.004.004-.004.007-.004.011v.007c-.004.022-.004.044-.007.065-.007.044-.011.087-.014.131-.004.007-.004.015-.004.018v.018c-.004.011-.004.018-.004.025-.004.007-.004.015-.004.018v.015c-.004.015-.004.029-.004.04-.011.062-.014.12-.022.174-.007.062-.014.123-.022.181-.004.04-.007.083-.014.127-.004.022-.007.044-.007.065-.014.12-.025.239-.04.359-.018.167-.036.33-.054.489-.025.228-.051.453-.076.681-.014.116-.025.228-.036.344-.018.156-.033.308-.051.464v.007c-.004.018-.004.036-.007.054-.004.047-.007.094-.014.145-.004.044-.011.091-.014.138-.004.051-.011.098-.015.149v.007c-.011.083-.022.17-.029.257 0 .007-.004.015 0 .022-.007.047-.011.094-.015.141-.007.051-.011.105-.018.159-.004.047-.007.094-.014.145-.069.659-.134 1.322-.199 1.985-.022.221-.044.446-.065.667-.011.138-.025.275-.04.413-.029.308-.058.619-.083.927-.033.348-.065.696-.094 1.047-.051.58-.102 1.163-.149 1.746-.015.174-.029.344-.044.518-.007.054-.011.109-.015.163-.007.109-.018.217-.025.33-.015.17-.029.341-.04.511-.022.264-.044.529-.062.794-.014.159-.025.322-.036.482-.036.478-.073.956-.105 1.438-.004.062-.007.12-.011.177-.033.417-.062.833-.087 1.25-.033.475-.065.953-.094 1.431s-.062.956-.087 1.438c-.051.801-.094 1.609-.138 2.416-.007.156-.018.315-.025.475-.025.485-.051.971-.072 1.456-.022.453-.044.906-.065 1.362-.011.253-.022.503-.033.757-.004.018-.004.033-.004.051-.004.08-.007.159-.011.239-.007.174-.014.344-.022.518 0 .058-.004.116-.007.177 0 .033-.004.062-.004.094-.004.087-.007.174-.011.261-.004.112-.007.228-.011.341-.004.072-.007.145-.011.221-.004.127-.007.254-.014.38-.007.181-.011.362-.018.547-.014.399-.029.797-.044 1.199-.007.253-.014.507-.025.764 0 .04-.004.076-.004.116-.007.243-.014.489-.022.732-.007.21-.011.424-.018.638-.014.518-.025 1.036-.04 1.554-.022.906-.044 1.815-.058 2.728-.011.406-.015.812-.022 1.221-.004.319-.011.641-.015.96-.004.246-.004.493-.007.739-.004.185-.007.366-.007.551-.004.283-.007.565-.007.851-.004.297-.007.598-.007.895-.004.192-.004.388-.004.583-.004.246-.004.496-.004.75-.004.58-.004 1.163-.004 1.746 0 .935.004 1.873.011 2.815 0 .29 0 .576.007.866v.279c.007.79.015 1.58.025 2.373.014 1.065.033 2.134.054 3.206.022 1.072.047 2.145.073 3.224.029 1.076.062 2.156.098 3.239v.014c.073 2.163.16 4.337.257 6.521v.011c.102 2.181.214 4.376.344 6.579.065 1.105.134 2.21.203 3.318v.007c.145 2.214.304 4.434.475 6.666.344 4.463.743 8.959 1.203 13.477 1.04 10.238 2.359 20.389 3.938 30.312 2.743 17.246 6.261 33.802 10.427 48.949z" fill="#c5d8db"/><path d="m189.012 112.382h-6.181c-1.127 0-2.206.569-2.964 1.565-.757.993-1.134 2.333-1.029 3.673 2.032 26.628 1.706 57.267-.946 88.597-1.148 13.564-2.703 26.863-4.612 39.67h-10.539l.92-23.94c10.64-34.852 8.086-98.538 8.767-107.53.482-6.376 3-8.144 4.934-8.535 1.33-.272 2.319-1.609 2.319-3.224v-.159c0-1.59-.96-2.949-2.268-3.214l-8.967-1.801.275-7.177h19.578z" fill="#027ca8"/><path d="m179.044 72.671h17.005v12.423h-17.005z" fill="#027ca8"/><path d="m179.044 45.236h9.968v23.534h-9.968z" fill="#027ca8"/><g fill="#fff"><path d="m170.456 45.25-.83 21.969h-3.858l1.01-21.983z"/><path d="m157.453 72.432h5.289v12.662h-5.289z"/><path d="m168.724 90.308-.275 7.176-4.786 124.464-.92 23.94h-5.21l7.17-155.58z"/><path d="m101.19 199.392c-15.796 1.022-28.602 13.097-30.823 28.545h-4.347c2.322-16.151 16.216-28.613 32.997-28.613.731-.001 1.456.024 2.173.068z"/><path d="m65.639 233.15h4.347v12.738h-4.347z"/><path d="m6.963 251.097h4.71v19.448h-4.71z"/><path d="m173.1 271.61c-2.395 9.934-4.608 18.136-6.282 24.041h-2.507l.134-2.406v-.004c.192-.645.384-1.293.572-1.946.054-.185.109-.373.163-.561.044-.145.083-.29.127-.439.044-.156.091-.312.134-.467.062-.214.123-.428.185-.645.101-.351.199-.703.297-1.058.011-.025.015-.047.022-.073.022-.072.043-.148.062-.221.011-.033.018-.062.025-.094.015-.047.029-.094.04-.145.054-.177.102-.359.152-.536.069-.246.138-.493.203-.739.004-.004.004-.007.004-.011.022-.069.04-.138.058-.21.072-.264.145-.525.217-.79.109-.391.217-.786.319-1.181.047-.167.091-.33.134-.496.054-.196.105-.388.156-.583.043-.145.08-.293.12-.438.022-.083.043-.167.065-.254.033-.116.062-.232.091-.351.004-.004.004-.004.004-.007.072-.275.145-.554.217-.833.04-.141.076-.286.112-.427.076-.286.149-.569.221-.855.018-.069.036-.141.054-.214.13-.496.257-.996.38-1.5.091-.344.178-.692.261-1.04.21-.833.417-1.674.623-2.518.022-.087.044-.17.062-.257.043-.178.087-.351.127-.529.058-.235.116-.471.17-.707.127-.522.25-1.043.373-1.565.279-1.185.554-2.373.822-3.569.043-.181.083-.362.123-.543.058-.261.119-.518.174-.779.025-.112.051-.221.076-.333.033-.152.069-.308.101-.46.054-.243.109-.489.163-.736.424-1.924.833-3.862 1.235-5.815.062-.301.123-.601.185-.902.033-.156.065-.308.094-.464.076-.362.149-.721.221-1.083.029-.152.062-.308.091-.46.116-.572.228-1.145.337-1.721.134-.659.261-1.319.384-1.982.018-.08.033-.163.047-.243.167-.855.326-1.71.486-2.572.004-.022.011-.047.014-.072.192-1.033.38-2.072.565-3.112 2.308-12.905 4.174-26.309 5.561-39.964 2.413-23.806 3.228-47.224 2.438-68.838h6.369c1.012 49.968-8.741 101.145-16.581 133.707z"/><path d="m278.323 117.591c-.33 2.743-.544 4.721-.812 7.55l-88.336-.098c.152 2.543.272 5.094.362 7.648h-6.478c-.254-5.137-.569-10.202-1.007-15.1z"/><path d="m6.963 274.391h4.71v21.26h-4.71z"/></g><path d="m287.702 246.706c-1.623-10.086-2.974-20.415-4.032-30.838-3.59-35.413-3.634-69.338-.12-98.1.167-1.366-.257-2.739-1.166-3.768-.913-1.029-2.224-1.619-3.601-1.619h-84.554l-.855-22.074h4.061c2.109 0 3.826-1.717 3.826-3.826v-15.436c0-2.108-1.717-3.826-3.826-3.826h-4.952l-.884-22.839c-.094-2.395-2.051-4.275-4.452-4.286l-21.371-.073h-.018c-2.221 0-4.036 1.728-4.134 3.938l-1.072 23.259h-4.485c-2.109 0-3.822 1.717-3.822 3.826v15.437c0 2.108 1.714 3.826 3.822 3.826h3.42l-7.166 155.58h-14.716v-12.737h4.054c3.355 0 3.358-5.213 0-5.213h-4.358c-2.355-19.038-18.618-33.827-38.283-33.827s-35.928 14.789-38.283 33.827h-4.188c-3.355 0-3.358 5.213 0 5.213h3.884v12.738h-41.367c12.742-20.466 25.48-40.928 38.221-61.393 3.405 4.967 6.807 9.937 10.209 14.904 1.884 2.75 6.402.149 4.5-2.63-3.902-5.699-7.804-11.394-11.705-17.093 5.268-8.467 10.539-16.93 15.81-25.396l5.956 31.265.011-.004c.192 1.044.388 2.083.58 3.123.257 1.384 1.931 2.17 3.206 1.819 1.453-.399 2.076-1.815 1.819-3.203-.167-.902-.337-1.804-.504-2.71h.007l-.366-1.927c-.145-.768-.286-1.536-.431-2.304-.004-.025-.018-.047-.022-.073l-5.764-30.244h28.411c1.123 0 2.181-.598 2.757-1.561.576-.967.605-2.181.069-3.174l-14.984-27.751c-.562-1.047-1.645-1.699-2.833-1.699h-12.91v-37.956h27.624c1.127 0 2.185-.598 2.761-1.569.572-.967.598-2.181.065-3.166l-14.991-27.762c-.562-1.04-1.645-1.685-2.826-1.685h-14.285l-20.462-35.446c-.333-.572-.804-1.036-1.362-1.355-.554-.322-1.196-.5-1.855-.5-1.326 0-2.558.71-3.221 1.855l-20.461 35.446h-12.285c-1.188 0-2.272.648-2.833 1.695l-14.84 27.767c-.536 1.004-.507 2.185.08 3.163.587.975 1.616 1.558 2.753 1.558h19.089c.609.225 1.286.25 1.898 0h6.633v37.957h-12.505c-1.177 0-2.261.645-2.833 1.699l-14.839 27.761c-.536 1.007-.507 2.188.08 3.166.587.975 1.616 1.558 2.753 1.558h25.57l-16.951 92.731.022.007c-.149.833-.297 1.67-.446 2.507-.036.214-.044.417-.036.62h-8.351c-1.819 0-3.297 1.478-3.297 3.297v48.622h5.213v-22.052h138.02c3.351 0 3.358-5.21 0-5.21h-138.02v-19.448h162.239c-3 15.796-6.659 30.769-10.89 44.42l.431.134 4.547 1.409c.145-.467.29-.938.431-1.409.141-.467.286-.938.427-1.413.091-.304.185-.609.275-.917.007-.025.014-.051.022-.076v-.004c.192-.645.384-1.293.572-1.946.054-.185.109-.373.163-.561.044-.145.083-.29.127-.439.044-.156.091-.312.134-.467.062-.214.123-.428.185-.645.101-.351.199-.703.297-1.058.007-.022.015-.047.022-.073.022-.072.043-.148.062-.221.011-.033.018-.062.025-.094.015-.047.029-.098.04-.145.054-.177.102-.359.152-.536.018-.065.036-.13.054-.192.047-.185.098-.366.149-.547.004-.004.004-.007.004-.011.022-.069.04-.141.058-.21.072-.264.145-.525.217-.79.109-.391.217-.786.319-1.181.047-.167.091-.33.134-.496.054-.196.105-.388.156-.583.036-.134.072-.264.105-.399.025-.098.051-.196.08-.293.033-.116.062-.232.091-.351 0 0 .004-.004.004-.007.072-.275.145-.554.217-.833.04-.141.076-.286.112-.427.076-.283.149-.569.221-.855.018-.069.036-.141.054-.214.13-.496.257-.996.38-1.5.036-.131.069-.265.101-.395.054-.214.109-.431.159-.645.04-.156.08-.312.12-.467.123-.507.25-1.011.373-1.518.044-.178.087-.355.13-.533.022-.083.044-.17.062-.257.043-.178.087-.351.127-.529.058-.235.116-.471.17-.707.127-.522.25-1.043.373-1.565.279-1.185.554-2.373.822-3.569.043-.181.083-.362.123-.543.058-.261.119-.518.174-.779.025-.112.051-.221.076-.333.033-.152.069-.308.101-.46.054-.246.109-.489.163-.736.424-1.924.833-3.862 1.235-5.815.062-.301.127-.601.185-.902.033-.156.065-.308.094-.464.007-.029.011-.054.018-.083.069-.333.134-.667.203-1 .029-.152.062-.308.091-.46.116-.572.228-1.145.337-1.721.13-.659.257-1.319.384-1.982.018-.08.033-.163.047-.243.167-.855.326-1.71.486-2.572.004-.022.011-.047.014-.072.192-1.033.38-2.072.565-3.112 2.308-12.905 4.174-26.309 5.561-39.964 2.413-23.806 3.228-47.224 2.438-68.838h76.75c3.355 0 3.358-5.213 0-5.213h-77.001c-.254-5.137-.569-10.202-1.007-15.1h96.27c-.029.243-.058.489-.087.732-.007.058-.014.112-.018.167-.004.011-.004.025-.004.036 0 .004 0 .004-.004.007v.015.004l-.004.004v.011c0 .007 0 .018-.004.025v.007c0 .011-.004.022-.004.033-.004.018-.007.036-.007.054v.025h-.004v.007c-.004.022-.004.044-.007.065-.007.044-.011.087-.014.131 0 .007-.004.011-.004.018v.018c-.004.007-.004.015-.004.025 0 .004 0 .011-.004.018v.029c-.004.011-.004.018-.004.025-.011.062-.014.12-.022.174-.007.062-.014.123-.022.181-.004.04-.007.083-.014.127-.004.022-.007.044-.007.065-.014.12-.025.239-.04.359-.018.167-.036.33-.054.489-.025.228-.051.453-.076.681-.014.116-.025.228-.036.344-.018.152-.033.308-.051.464v.007c-.004.018-.004.036-.007.054-.004.047-.007.094-.014.145-.007.047-.011.091-.014.138-.004.051-.011.098-.015.149v.007c-.004.025-.004.051-.007.076-.007.065-.015.134-.022.203-.007.047-.011.094-.015.141-.007.051-.011.105-.018.159-.004.047-.007.094-.014.145-.015.156-.029.315-.047.475-.054.5-.101 1.007-.152 1.511-.022.221-.044.446-.065.667-.011.138-.025.275-.04.413-.029.308-.058.619-.083.927-.033.348-.065.696-.094 1.047-.051.58-.102 1.163-.149 1.746-.015.174-.029.344-.044.518-.007.054-.011.109-.015.163-.007.109-.018.217-.025.33-.015.17-.029.341-.04.511-.022.264-.044.529-.062.794-.014.159-.025.322-.036.482-.036.478-.073.956-.105 1.438-.004.062-.007.12-.011.177-.033.417-.062.833-.087 1.25-.033.475-.065.953-.094 1.431s-.062.956-.087 1.438c-.047.801-.094 1.609-.138 2.416-.007.156-.018.315-.025.475-.025.485-.051.971-.072 1.456-.022.453-.044.906-.065 1.362-.011.253-.022.503-.033.757-.004.018-.004.033-.004.051-.004.08-.007.159-.011.239-.007.174-.014.344-.022.518 0 .058-.004.116-.007.177 0 .033-.004.062-.004.094-.004.087-.007.174-.011.261-.004.112-.007.228-.011.341-.011.192-.018.38-.022.572-.007.192-.014.384-.022.576-.014.399-.029.797-.044 1.199-.007.253-.014.507-.025.764 0 .04-.004.076-.004.116-.007.243-.014.489-.022.732-.007.21-.011.424-.018.638-.014.518-.025 1.036-.04 1.554-.022.906-.044 1.815-.058 2.728-.007.406-.015.812-.022 1.221-.004.319-.011.641-.015.96-.004.246-.004.493-.007.739-.004.185-.007.366-.007.551-.004.283-.007.565-.007.851-.004.297-.007.598-.007.895-.004.192-.004.388-.004.583-.004.246-.004.496-.004.75-.004.58-.004 1.163-.004 1.746 0 .935.004 1.873.011 2.815 0 .286.004.576.007.866v.279c.007.79.015 1.58.025 2.373.014 1.065.033 2.134.054 3.206.022 1.072.047 2.145.073 3.224.029 1.076.062 2.156.098 3.239v.014c.073 2.163.156 4.337.257 6.521v.011c.102 2.181.214 4.376.344 6.579.065 1.105.134 2.21.203 3.318v.007c.145 2.214.301 4.438.475 6.666.344 4.463.743 8.959 1.203 13.477 1.04 10.238 2.359 20.389 3.938 30.312 2.739 17.241 6.257 33.798 10.423 48.945.123.467.254.935.384 1.402l5.021-1.402c-4.208-15.095-7.77-31.658-10.545-48.94zm-230.631-71.725c-5.655-8.257-11.314-16.517-16.97-24.777l32.465-.109c-5.163 8.297-10.329 16.59-15.495 24.886zm48.579-30.168h-25.288c4.369-7.521 8.738-15.038 13.104-22.556zm-17.509-23.762c-4.601 7.92-9.202 15.843-13.807 23.762h-17.727c4.576-7.876 9.148-15.748 13.723-23.621h7.615c.015 0 .025-.004.04-.007.025 0 .054-.004.08-.007.264-.011.518-.058.761-.127zm-31.298-27.251c-5.304-5.307-10.608-10.611-15.915-15.919h31.834c-5.308 5.308-10.612 10.611-15.919 15.919zm19.049-11.68v30.726c-5.119-5.119-10.242-10.242-15.365-15.361 5.123-5.123 10.246-10.242 15.365-15.365zm-22.734 15.364c-5.119 5.119-10.242 10.242-15.361 15.361v-30.725c5.119 5.123 10.242 10.242 15.361 15.364zm3.685 3.685c4.891 4.891 9.782 9.782 14.673 14.669h-29.342c4.891-4.887 9.781-9.778 14.669-14.669zm48.528-28.498h-25.284c4.369-7.517 8.735-15.039 13.104-22.556zm-17.506-23.762c-4.605 7.923-9.206 15.843-13.807 23.762h-17.726c4.601-7.92 9.202-15.839 13.803-23.762zm-32.095-35.805 17.665 30.595h-35.33zm-32.142 59.567h-15.328l12.702-23.762h17.607c-4.992 7.923-9.985 15.843-14.981 23.762zm6.159 0c4.992-7.92 9.988-15.839 14.981-23.762h19.342c-4.601 7.923-9.202 15.843-13.807 23.762zm-21.212 72.142 12.702-23.762h13.586c.243.069.493.116.757.127.029.004.054.007.083.007.015.004.025.007.04.007h3.054c-4.963 7.872-9.927 15.745-14.89 23.621zm21.487 0c4.963-7.872 9.93-15.748 14.894-23.621h19.346c-4.572 7.872-9.148 15.745-13.72 23.621zm5.533 8.014 18.477 26.976c-11.046 17.738-22.092 35.479-33.135 53.22zm131.183-107.591 3.677.015 8.59.029 7.373.025.848 21.915h-21.498zm-9.325 39.858v-12.662h38.594v12.662zm-58.437 114.229c.732 0 1.456.025 2.174.069h.011.007c15.792 1.033 28.584 13.104 30.805 28.545h-65.994c2.323-16.151 16.216-28.614 32.997-28.614zm-33.377 33.827h66.755v12.738h-66.755zm115.968-120.768c-1.351 0-2.645.569-3.554 1.565-.906.993-1.355 2.333-1.232 3.673 2.438 26.628 2.047 57.267-1.13 88.597-1.377 13.564-3.239 26.863-5.528 39.67h-12.629l7.17-155.58h23.458l.851 22.074h-7.406z" fill="#002144"/></g></svg>