<svg enable-background="new 0 0 256 256" height="512" viewBox="0 0 256 256" width="512" xmlns="http://www.w3.org/2000/svg"><g id="Icons"><g><path d="m237.76 220.16h-219.52c-5.523 0-10-4.477-10-10v-164.32c0-5.523 4.477-10 10-10h219.52c5.523 0 10 4.477 10 10v164.32c0 5.523-4.477 10-10 10z" fill="#efefef"/><path d="m100.648 60.823v88.88c0 2.761 2.239 5 5 5h122c2.761 0 5-2.239 5-5v-88.88c0-2.761-2.239-5-5-5h-122c-2.762 0-5 2.238-5 5z" fill="#72c2e9"/><path d="m232.65 60.82v7c0-2.76-2.24-5-5-5h-122c-2.76 0-5 2.24-5 5v-7c0-2.76 2.24-5 5-5h122c2.76 0 5 2.24 5 5z" fill="#4ba5c8"/><path d="m166.648 168.756c-6.722 0-12.171 5.449-12.171 12.171s5.449 12.171 12.171 12.171 12.171-5.449 12.171-12.171-5.449-12.171-12.171-12.171z" fill="#efefef"/><path d="m166.648 168.756c-6.722 0-12.171 5.449-12.171 12.171s5.449 12.171 12.171 12.171 12.171-5.449 12.171-12.171-5.449-12.171-12.171-12.171z" fill="#f0c020"/><path d="m123.635 183.525 12.081 6.975c2 1.155 4.5-.289 4.5-2.598v-13.95c0-2.309-2.5-3.753-4.5-2.598l-12.081 6.975c-2 1.155-2 4.042 0 5.196z" fill="#72c2e9"/><path d="m209.661 183.525-12.081 6.975c-2 1.155-4.5-.289-4.5-2.598v-13.95c0-2.309 2.5-3.753 4.5-2.598l12.081 6.975c2 1.155 2 4.042 0 5.196z" fill="#fc5d3d"/><path d="m51.703 197.765c-15.633 0-28.351-12.718-28.351-28.351 0-8.696 3.885-16.641 10.351-21.917v-69.834c0-9.925 8.075-18 18-18s18 8.075 18 18v69.834c6.465 5.277 10.351 13.222 10.351 21.917-.001 15.633-12.718 28.351-28.351 28.351z" fill="#f0c020"/><path d="m57.7 77.66v35.82h-12v-35.82c0-3.31 2.69-6 6-6 3.32 0 6 2.69 6 6z" fill="#afafaf"/><path d="m68.05 169.41c0 9.03-7.32 16.36-16.35 16.36s-16.35-7.33-16.35-16.36c0-6.91 4.29-12.8 10.35-15.19v-40.74h12v40.74c6.06 2.39 10.35 8.29 10.35 15.19z" fill="#fc5d3d"/><path d="m237.76 48.34h-206.52c-1.381 0-2.5-1.119-2.5-2.5s1.119-2.5 2.5-2.5h206.52c1.381 0 2.5 1.119 2.5 2.5s-1.119 2.5-2.5 2.5zm-216.52 0h-3c-1.381 0-2.5-1.119-2.5-2.5s1.119-2.5 2.5-2.5h3c1.381 0 2.5 1.119 2.5 2.5s-1.119 2.5-2.5 2.5z" fill="#fff"/><path d="m237.76 212.66h-3c-1.381 0-2.5-1.119-2.5-2.5s1.119-2.5 2.5-2.5h3c1.381 0 2.5 1.119 2.5 2.5s-1.119 2.5-2.5 2.5zm-13 0h-206.52c-1.381 0-2.5-1.119-2.5-2.5s1.119-2.5 2.5-2.5h206.52c1.381 0 2.5 1.119 2.5 2.5s-1.119 2.5-2.5 2.5z" fill="#fff"/><path d="m250.26 45.84c0-6.893-5.607-12.5-12.5-12.5h-219.52c-6.893 0-12.5 5.607-12.5 12.5v64.32c0 1.38 1.119 2.5 2.5 2.5 1.38 0 2.5-1.12 2.5-2.5v-64.32c0-4.136 3.364-7.5 7.5-7.5h219.52c4.136 0 7.5 3.364 7.5 7.5v164.32c0 4.136-3.364 7.5-7.5 7.5h-219.52c-4.136 0-7.5-3.364-7.5-7.5v-80c0-1.38-1.12-2.5-2.5-2.5-1.381 0-2.5 1.12-2.5 2.5v80c0 6.893 5.607 12.5 12.5 12.5h219.52c6.893 0 12.5-5.607 12.5-12.5z"/><circle cx="8.24" cy="120.16" r="2.5"/><path d="m153.649 53.32h-48c-.019 0-.037.005-.056.006-4.11.03-7.446 3.38-7.446 7.497v88.88c0 4.136 3.364 7.5 7.5 7.5h122c4.136 0 7.5-3.364 7.5-7.5v-88.88c0-4.115-3.331-7.463-7.438-7.497-.021 0-.04-.006-.06-.006h-54c-1.38 0-2.5 1.12-2.5 2.5s1.12 2.5 2.5 2.5h53.969c.01 0 .019.003.029.003 1.379 0 2.5 1.122 2.5 2.5v88.88c0 1.378-1.121 2.5-2.5 2.5h-122c-1.379 0-2.5-1.122-2.5-2.5v-88.88c0-1.378 1.121-2.5 2.5-2.5.01 0 .019-.003.029-.003h47.973c1.381 0 2.5-1.12 2.5-2.5s-1.119-2.5-2.5-2.5z"/><circle cx="163.649" cy="55.82" r="2.5"/><path d="m151.977 180.927c0 8.09 6.581 14.671 14.671 14.671s14.672-6.582 14.672-14.671-6.582-14.671-14.672-14.671-14.671 6.581-14.671 14.671zm24.342 0c0 5.333-4.339 9.671-9.672 9.671s-9.671-4.338-9.671-9.671 4.338-9.671 9.671-9.671 9.672 4.338 9.672 9.671z"/><path d="m134.466 169.189-12.081 6.975c-3.666 2.117-3.67 7.407 0 9.526l12.081 6.975c3.667 2.116 8.25-.527 8.25-4.763v-13.95c0-4.232-4.579-6.882-8.25-4.763zm3.25 18.713c0 .388-.412.628-.75.433l-12.081-6.975c-.336-.194-.337-.672 0-.866l12.081-6.975c.337-.194.75.044.75.433z"/><path d="m198.83 169.189c-3.666-2.115-8.25.525-8.25 4.763v13.95c0 4.234 4.58 6.881 8.25 4.763l12.081-6.975c3.666-2.117 3.67-7.407 0-9.526zm9.581 12.171-12.081 6.975c-.337.194-.75-.044-.75-.433v-13.95c0-.376.401-.634.75-.433l12.081 6.975c.336.194.337.672 0 .866z"/><path d="m72.203 77.663c0-11.304-9.196-20.5-20.5-20.5s-20.5 9.196-20.5 20.5v68.678c-6.594 5.823-10.351 14.165-10.351 23.074 0 16.989 13.803 30.812 30.783 30.849.022.001.043.007.065.007 3.489 0 6.92-.59 10.189-1.73 1.317-.46 1.977-1.91 1.53-3.19-.44-1.27-1.91-1.98-3.19-1.53-2.709.956-5.576 1.435-8.494 1.449-.011 0-.022-.003-.033-.003-14.254 0-25.851-11.597-25.851-25.851 0-7.807 3.438-15.089 9.432-19.98.581-.475.919-1.186.919-1.937v-69.836c0-8.547 6.953-15.5 15.5-15.5s15.5 6.953 15.5 15.5v8.84h-7v-8.84c0-4.687-3.813-8.5-8.5-8.5s-8.5 3.813-8.5 8.5v74.936c-6.342 3.189-10.352 9.617-10.352 16.816 0 10.394 8.456 18.851 18.851 18.851s18.851-8.457 18.851-18.851c0-7.2-4.009-13.627-10.35-16.816v-36.616h7v31.514c0 .751.338 1.462.919 1.937 5.992 4.891 9.429 12.17 9.431 19.972 0 .002-.004.004-.004.004 0 4.59-1.22 9.1-3.53 13.04-.706 1.205-.297 2.745.891 3.42 1.155.701 2.709.32 3.42-.88 2.749-4.701 4.206-10.058 4.218-15.515 0-.021.006-.04.006-.06 0-8.908-3.757-17.249-10.351-23.074v-68.678zm-5 13.84v7.24h-7v-7.24zm-15.5-17.34c1.93 0 3.5 1.57 3.5 3.5v33.317h-7v-33.317c0-1.93 1.57-3.5 3.5-3.5zm13.85 95.252c0 7.637-6.213 13.851-13.851 13.851s-13.851-6.213-13.851-13.851c0-5.715 3.442-10.769 8.771-12.874.954-.377 1.581-1.299 1.581-2.325v-38.236h7v38.235c0 1.026.627 1.948 1.581 2.325 5.327 2.106 8.769 7.159 8.769 12.875zm-5.35-58.432v-7.24h7v7.24z"/><path d="m68.13 189.36c-1.071.864-1.215 2.437-.34 3.52.871 1.054 2.414 1.225 3.52.34 1.061-.88 1.21-2.46.34-3.52-.85-1.03-2.501-1.19-3.52-.34z"/><path d="m148.416 79.522h-2.6c-7.911 0-14.347 6.436-14.347 14.346 0 1.381 1.119 2.5 2.5 2.5s2.5-1.119 2.5-2.5c0-5.153 4.193-9.346 9.347-9.346h2.6c5.153 0 9.347 4.193 9.347 9.346 0 3.937-2.49 7.474-6.197 8.8l-7.932 2.839c-7.275 2.604-12.164 9.546-12.164 17.273v5.724c0 1.381 1.119 2.5 2.5 2.5h26.293c1.381 0 2.5-1.119 2.5-2.5s-1.119-2.5-2.5-2.5h-23.793v-3.224c0-5.622 3.557-10.671 8.85-12.565l7.932-2.839c5.689-2.037 9.512-7.465 9.512-13.508-.001-7.91-6.437-14.346-14.348-14.346z"/><path d="m201.826 115.357v-20.189c0-8.627-7.019-15.646-15.646-15.646s-15.646 7.019-15.646 15.646v20.189c0 8.627 7.019 15.646 15.646 15.646s15.646-7.018 15.646-15.646zm-26.293 0v-20.189c0-5.87 4.776-10.646 10.646-10.646s10.646 4.776 10.646 10.646v20.189c0 5.871-4.776 10.646-10.646 10.646s-10.646-4.775-10.646-10.646z"/><path d="m219.298 77.04c0-4.344-3.533-7.877-7.877-7.877s-7.877 3.534-7.877 7.877 3.533 7.877 7.877 7.877 7.877-3.533 7.877-7.877zm-10.754 0c0-1.586 1.291-2.877 2.877-2.877s2.877 1.291 2.877 2.877-1.291 2.877-2.877 2.877-2.877-1.291-2.877-2.877z"/><path d="m164.147 178.82v4.215c0 1.381 1.119 2.5 2.5 2.5s2.5-1.119 2.5-2.5v-4.215c0-1.381-1.119-2.5-2.5-2.5s-2.5 1.119-2.5 2.5z"/></g></g></svg>